<svg width="36" height="36" viewBox="0 0 36 36" fill="none" xmlns="http://www.w3.org/2000/svg">
<path d="M1.82812 1.11794C1.34296 1.2656 0.977337 1.57497 0.731243 2.03904C0.604681 2.2781 0.59765 2.74216 0.576556 14.7304C0.562493 28.2797 0.534368 27.4711 0.949212 28.0125C1.05468 28.1461 1.30077 28.3359 1.49765 28.4414C1.81406 28.5961 1.94062 28.6172 2.64374 28.6172H3.43124L3.45937 29.4047C3.48749 30.2976 3.59999 30.614 4.0289 30.9867C4.57031 31.4648 3.85312 31.4367 14.5969 31.4156L24.307 31.3945L24.6445 31.1836C25.1508 30.8672 25.3758 30.5086 25.4812 29.8476L25.5656 29.2922L26.0367 29.1726C26.8172 28.9758 27.8508 28.4906 28.5258 28.0125C28.6664 27.907 28.6875 27.9211 28.9687 28.2937L29.2641 28.6804L29.0601 28.8562C28.9547 28.9547 28.8422 29.039 28.807 29.039C28.7789 29.039 28.6945 29.1445 28.6172 29.264C28.4484 29.5383 28.4344 29.9531 28.582 30.2203C28.6383 30.3258 29.4539 31.3875 30.3891 32.5898C32.2734 34.9875 32.3508 35.0508 32.8922 34.889C33.2226 34.7836 35.1914 33.2437 35.332 32.9765C35.4516 32.7445 35.4656 32.4984 35.3742 32.2594C35.2477 31.9429 31.8516 27.6679 31.6195 27.5414C31.2258 27.3304 30.9445 27.3867 30.4312 27.7875L30.1781 27.9844L29.9039 27.6539C29.4891 27.1476 29.4891 27.1758 29.8758 26.7328C30.6211 25.875 31.1977 24.6867 31.4719 23.4422C31.6266 22.7179 31.6336 21.1851 31.4789 20.489C31.0359 18.5062 29.925 16.8679 28.2937 15.7781C27.6187 15.3281 26.6273 14.8922 25.9664 14.7586L25.5305 14.6672L25.5094 9.92107C25.4883 4.71091 25.5094 4.96404 25.0594 4.43669C24.9539 4.3031 24.7008 4.12732 24.5039 4.03591C24.2016 3.88825 24.0398 3.86716 23.3648 3.86716H22.5703V3.10779C22.5703 2.53122 22.5351 2.29216 22.4367 2.07419C22.282 1.72263 21.9656 1.39919 21.607 1.22341C21.3469 1.09685 21.0094 1.08982 11.6719 1.07576C6.35624 1.06872 1.92656 1.08982 1.82812 1.11794ZM21.3117 2.38357C21.4242 2.51716 21.4453 2.66482 21.4453 3.20622V3.86716H13.1766C7.10156 3.86716 4.83046 3.88825 4.63359 3.95154C4.27499 4.057 3.83202 4.43669 3.63515 4.80935L3.48046 5.09763L3.45937 16.2914L3.44531 27.4922H2.73515C2.08124 27.4922 2.01796 27.4781 1.86327 27.3164L1.68749 27.1476V14.8711V2.58747L1.8914 2.38357L2.10234 2.17966L11.6367 2.19372L21.1781 2.21482L21.3117 2.38357ZM24.1664 5.16091L24.3633 5.32966V9.9281V14.5195L23.6601 14.5617C22.493 14.639 21.4101 14.9625 20.4328 15.539L19.9547 15.8203H17.8453H15.743L15.5742 15.9961C15.3422 16.2211 15.3422 16.5445 15.5742 16.7695C15.743 16.9453 15.75 16.9453 17.1914 16.9453H18.6328L18.2109 17.5078C17.9859 17.8172 17.6766 18.3234 17.5289 18.6328L17.2617 19.1883H12.0094L6.75702 19.1953L6.56718 19.357C6.32109 19.575 6.30702 19.8984 6.53906 20.1445L6.70077 20.3203H11.7984H16.8891L16.8469 20.5453C16.8258 20.6719 16.7836 21.1781 16.7625 21.6703L16.7133 22.5703H11.7492C6.33515 22.5703 6.55312 22.5562 6.39843 22.964C6.32109 23.1679 6.43359 23.5336 6.60937 23.625C6.69374 23.6672 8.6414 23.6953 11.8336 23.6953H16.9172L17.0859 24.2297C17.1703 24.5179 17.3812 25.0242 17.543 25.3547L17.8383 25.9453H12.3469C6.42656 25.9453 6.59531 25.9383 6.41249 26.325C6.29999 26.55 6.39843 26.8875 6.6164 27C6.69374 27.0422 9.03515 27.0703 12.7406 27.0703H18.7453L18.9562 27.2883C19.2937 27.6539 20.243 28.3289 20.8125 28.6172C21.7617 29.0883 22.5844 29.3133 23.6601 29.3836L24.3633 29.4258L24.3492 29.707C24.3351 29.9109 24.2789 30.0304 24.1523 30.1429L23.9695 30.3047H14.4633C7.10156 30.2976 4.9289 30.2836 4.84452 30.2133C4.78124 30.164 4.69687 30.0586 4.65468 29.9742C4.53515 29.7562 4.53515 5.5406 4.65468 5.32263C4.69687 5.23825 4.78124 5.13279 4.84452 5.08357C4.9289 5.01325 7.10156 4.99919 14.4633 4.99216H23.9695L24.1664 5.16091ZM25.0664 15.7219C25.2984 15.7429 25.7414 15.8414 26.0508 15.9398C29.5383 17.0226 31.3594 20.8195 30.0516 24.2648C29.3133 26.2195 27.5344 27.7242 25.4461 28.1601C24.7992 28.3008 23.5476 28.2937 22.8656 28.1531C21.7758 27.9351 20.7211 27.3797 19.8773 26.5781C18.9703 25.7203 18.457 24.8906 18.0914 23.7164C17.9226 23.1539 17.9016 22.9922 17.9016 21.9726C17.9016 20.9531 17.9226 20.7914 18.0914 20.2289C18.8789 17.6695 20.9601 15.9328 23.5547 15.6797C24.075 15.6304 24.2437 15.6304 25.0664 15.7219ZM32.6742 30.5578C33.4758 31.5844 34.1437 32.4633 34.1508 32.5054C34.1648 32.5898 32.8219 33.6797 32.7164 33.6797C32.6742 33.6726 30.5297 30.9726 29.7914 29.9883L29.6648 29.8195L30.382 29.25C30.7758 28.9406 31.1203 28.6875 31.1555 28.6875C31.1836 28.6875 31.8727 29.5312 32.6742 30.5578Z" fill="white"/>
<path d="M7.16488 8.98594C6.89066 9.12656 6.72895 9.27422 6.57426 9.52734L6.36332 9.86484L6.34223 12.6703C6.32113 15.8133 6.34223 16.0102 6.7641 16.4461C7.24223 16.9383 7.26332 16.9453 10.125 16.9453C11.7071 16.9453 12.7969 16.9172 12.9586 16.868C13.3032 16.7766 13.6969 16.425 13.8586 16.0664C13.9782 15.8062 13.9922 15.5391 13.9922 12.8461C13.9922 10.0898 13.9852 9.89297 13.8586 9.64688C13.6829 9.30938 13.3946 9.03516 13.0641 8.90156C12.8391 8.80313 12.3891 8.78906 10.1672 8.78906H7.53754L7.16488 8.98594ZM12.7547 10.0266C12.8532 10.118 12.8672 10.4766 12.8672 12.8672C12.8672 15.2578 12.8532 15.6164 12.7547 15.7078C12.6633 15.8062 12.3258 15.8203 10.1883 15.8203C7.82582 15.8203 7.72738 15.8133 7.59379 15.6797C7.4602 15.5461 7.45316 15.4477 7.45316 12.8812C7.45316 10.5891 7.46723 10.2023 7.56566 10.0688L7.67113 9.91406H10.1602C12.3258 9.91406 12.6633 9.92813 12.7547 10.0266Z" fill="white"/>
<path d="M15.5531 9.23223C15.2578 9.54863 15.4124 10.0549 15.8343 10.1604C15.9257 10.1814 17.4445 10.1885 19.2163 10.1814L22.4437 10.1604L22.6195 9.95645C22.8234 9.71035 22.8023 9.39395 22.5632 9.19004C22.4226 9.07754 22.1484 9.07051 19.0617 9.07051H15.7007L15.5531 9.23223Z" fill="white"/>
<path d="M15.5531 12.6068C15.3633 12.8107 15.3563 13.1482 15.532 13.3662L15.6656 13.535L19.0195 13.5561L22.3664 13.5771L22.5844 13.3592C22.7602 13.1764 22.7883 13.1061 22.7531 12.9162C22.6617 12.4311 22.7883 12.4451 19.0617 12.4451H15.7008L15.5531 12.6068Z" fill="white"/>
<path d="M22.9218 17.093C20.3203 17.7751 18.7031 20.3274 19.2234 22.922C19.7015 25.2563 21.5578 26.8665 23.9132 26.986C24.8695 27.0282 25.5375 26.8876 26.4375 26.4587C27.689 25.854 28.6875 24.6165 29.0461 23.2243C29.2992 22.2118 29.2218 21.0376 28.8281 20.0321C28.2867 18.661 26.8945 17.4657 25.4109 17.086C24.6867 16.9032 23.639 16.9032 22.9218 17.093ZM25.5656 18.3095C26.5992 18.7032 27.5484 19.6876 27.8789 20.7071C28.0757 21.2977 28.0757 22.6407 27.8859 23.2313C27.3797 24.7571 25.8328 25.8751 24.2086 25.8751C23.0836 25.8751 22.1976 25.5095 21.4172 24.722C19.3007 22.6055 20.2218 19.0548 23.0976 18.197C23.7445 18.0071 24.9047 18.0563 25.5656 18.3095Z" fill="white"/>
<path d="M23.8289 18.9772C23.3157 19.0475 23.0625 19.3569 23.2102 19.7366C23.3227 20.046 23.4703 20.1022 24.0891 20.0882C24.5742 20.0811 24.7078 20.1022 25.0524 20.278C25.5305 20.51 25.8258 20.8475 26.0297 21.396C26.1914 21.846 26.4446 22.0429 26.7469 21.9655C27.3938 21.8038 27.2321 20.7983 26.4375 19.9405C25.7203 19.1811 24.7992 18.8366 23.8289 18.9772Z" fill="white"/>
</svg>
