<svg width="36" height="36" viewBox="0 0 36 36" fill="none" xmlns="http://www.w3.org/2000/svg">
<g clip-path="url(#clip0_143_475)">
<path d="M10.7542 27.8883C11.2334 27.1634 11.5133 26.2957 11.5133 25.3636C11.5133 22.8328 9.45358 20.7739 6.92177 20.7739C4.38996 20.7739 2.33029 22.8328 2.33029 25.3636C2.33029 26.2958 2.61028 27.1634 3.08946 27.8884C1.26815 28.6429 0.000488281 30.4508 0.000488281 32.4848V35.297C0.000488281 35.6854 0.315277 36.0002 0.703613 36.0002H13.14C13.5283 36.0002 13.8431 35.6854 13.8431 35.297V32.4848C13.8431 30.4505 12.5755 28.6426 10.7542 27.8883ZM6.92177 22.1802C8.67811 22.1802 10.1071 23.6082 10.1071 25.3636C10.1071 27.12 8.67818 28.5489 6.92177 28.5489C5.16543 28.5489 3.73654 27.12 3.73654 25.3636C3.73654 23.6082 5.16543 22.1802 6.92177 22.1802ZM12.4369 34.5939H1.40674V32.4848C1.40674 30.8381 2.56549 29.3978 4.14646 29.0183C4.91793 29.6056 5.8796 29.9552 6.92177 29.9552C7.96394 29.9552 8.92568 29.6056 9.69714 29.0183C11.2781 29.3975 12.4369 30.8379 12.4369 32.4848V34.5939Z" fill="white"/>
<path d="M32.9086 27.8882C33.3877 27.1633 33.6677 26.2957 33.6677 25.3636C33.6677 22.8328 31.6079 20.7739 29.0762 20.7739C26.5455 20.7739 24.4867 22.8328 24.4867 25.3636C24.4867 26.2955 24.7664 27.163 25.2452 27.8879C23.4232 28.642 22.1549 30.4503 22.1549 32.4848V35.297C22.1549 35.6854 22.4697 36.0002 22.858 36.0002H35.2965C35.6848 36.0002 35.9996 35.6854 35.9996 35.297V32.4848C35.9995 30.4505 34.7311 28.6425 32.9086 27.8882ZM29.0762 22.1802C30.8325 22.1802 32.2614 23.6082 32.2614 25.3636C32.2614 27.12 30.8325 28.5489 29.0762 28.5489C27.3209 28.5489 25.8929 27.12 25.8929 25.3636C25.8929 23.6082 27.3209 22.1802 29.0762 22.1802ZM34.5933 34.5939H23.5611V32.4848C23.5611 30.8378 24.7203 29.3972 26.3018 29.0181C27.073 29.6055 28.0344 29.9552 29.0762 29.9552C30.1184 29.9552 31.0801 29.6055 31.8516 29.0182C33.4337 29.3975 34.5932 30.838 34.5932 32.4848V34.5939H34.5933Z" fill="white"/>
<path d="M29.0958 18.5792C29.211 18.653 29.3428 18.6902 29.475 18.6902C29.5887 18.6902 29.7027 18.6626 29.8065 18.6071C30.031 18.4871 30.173 18.255 30.1779 18.0006L30.2186 15.8788C32.0812 15.4221 33.4626 13.7192 33.4626 11.7527C33.4626 9.69525 31.9917 7.97534 30.0464 7.58798C30.1465 7.14277 30.198 6.68805 30.198 6.22786C30.1979 2.7938 27.4042 0 23.9702 0H19.173C18.7846 0 18.4698 0.314789 18.4698 0.703125C18.4698 1.09146 18.7846 1.40625 19.173 1.40625H23.9702C26.6288 1.40625 28.7917 3.56927 28.7917 6.22793C28.7917 6.66204 28.733 7.09003 28.6181 7.50593H19.0136C16.9115 7.50593 15.1623 9.04148 14.8261 11.0496H12.9369C12.7779 11.0496 12.6236 11.1035 12.4992 11.2024L8.33479 14.5145L8.28058 11.7171C8.27362 11.3577 7.99673 11.0614 7.63863 11.0302C5.17122 10.8153 3.2384 8.70581 3.2384 6.22779C3.2384 3.56927 5.4022 1.40625 8.06191 1.40625H12.8591C13.2475 1.40625 13.5622 1.09146 13.5622 0.703125C13.5622 0.314789 13.2475 0 12.8591 0H8.06191C4.62679 0 1.83215 2.7938 1.83215 6.22793C1.83215 7.79048 2.41884 9.28723 3.48422 10.4426C4.39701 11.4325 5.58747 12.094 6.88622 12.3436L6.95632 15.9637C6.96152 16.2312 7.11797 16.4725 7.35998 16.5864C7.4554 16.6313 7.55756 16.6533 7.65923 16.6533C7.8154 16.6533 7.97022 16.6013 8.097 16.5005L13.1823 12.4559H14.8261C15.1623 14.4641 16.9115 15.9996 19.0136 15.9996H25.0659L29.0958 18.5792ZM16.1731 11.7527C16.1731 10.1865 17.4474 8.91218 19.0136 8.91218H29.2158C30.7821 8.91218 32.0563 10.1865 32.0563 11.7527C32.0563 13.2126 30.9184 14.4553 29.4657 14.582C29.1075 14.6132 28.8306 14.9096 28.8238 15.269L28.796 16.7176L25.6507 14.7042C25.5376 14.6318 25.406 14.5932 25.2717 14.5932H19.0136C17.4473 14.5933 16.1731 13.319 16.1731 11.7527Z" fill="white"/>
<path d="M20.1256 11.0488C19.7373 11.0488 19.4225 11.3646 19.4225 11.7529C19.4225 12.1413 19.7373 12.4561 20.1256 12.4561C20.5139 12.4561 20.8287 12.1413 20.8287 11.7529V11.751C20.8287 11.3626 20.5139 11.0488 20.1256 11.0488Z" fill="white"/>
<path d="M24.1156 11.0488C23.7273 11.0488 23.4125 11.3646 23.4125 11.7529C23.4125 12.1413 23.7273 12.4561 24.1156 12.4561C24.5039 12.4561 24.8187 12.1413 24.8187 11.7529V11.751C24.8187 11.3626 24.5039 11.0488 24.1156 11.0488Z" fill="white"/>
<path d="M28.1036 12.4561C28.492 12.4561 28.8068 12.1413 28.8068 11.7529V11.751C28.8068 11.3626 28.492 11.0488 28.1036 11.0488C27.7153 11.0488 27.4005 11.3646 27.4005 11.7529C27.4005 12.1413 27.7153 12.4561 28.1036 12.4561Z" fill="white"/>
<path d="M16.0159 1.40625H16.0199C16.4083 1.40625 16.7211 1.09146 16.7211 0.703125C16.7211 0.314789 16.4043 0 16.016 0C15.6277 0 15.3129 0.314789 15.3129 0.703125C15.3129 1.09146 15.6276 1.40625 16.0159 1.40625Z" fill="white"/>
</g>
<defs>
<clipPath id="clip0_143_475">
<rect width="36" height="36" fill="white"/>
</clipPath>
</defs>
</svg>
