<svg width="36" height="36" viewBox="0 0 36 36" fill="none" xmlns="http://www.w3.org/2000/svg">
<g clip-path="url(#clip0_178_51)">
<path d="M2.65786 0.921093C1.45552 1.20234 0.393799 2.39062 0.105518 3.76172C-0.0491699 4.49297 -0.0491699 24.6797 0.105518 25.4039C0.407861 26.8313 1.47661 27.9984 2.72817 28.2586C3.19224 28.357 7.50942 28.3641 7.76255 28.2656C8.19146 28.1039 8.31802 27.4781 7.98755 27.1477L7.80474 26.9648L5.35786 26.9297C3.00942 26.8945 2.90396 26.8875 2.62974 26.7398C2.23599 26.5289 1.79302 26.0156 1.60317 25.5305L1.44146 25.1367V18.3867V11.6367L16.7204 11.6156L31.9922 11.6016V15.1875V18.7734H31.7321C31.4086 18.7734 30.9024 18.9984 30.6493 19.2375L30.4594 19.4203L29.9813 19.2094C29.7141 19.0969 29.4258 18.9773 29.3415 18.9563C29.2219 18.9211 29.1797 18.8367 29.1446 18.5414C29.0602 17.9227 28.7579 17.4797 28.2376 17.2125C27.9 17.0367 26.6696 16.9594 26.0508 17.0789C25.2844 17.2195 24.7782 17.7609 24.7008 18.5133L24.6657 18.8859L24.0399 19.1531L23.4141 19.4203L23.1961 19.2305C22.8165 18.9211 22.5633 18.8227 22.1133 18.8227C21.8251 18.8227 21.6071 18.8648 21.4102 18.9703C21.0305 19.1672 19.8633 20.3625 19.7227 20.6859C19.5047 21.2203 19.6594 21.9938 20.0743 22.4297L20.25 22.6125L19.9758 23.2383L19.7016 23.8711L19.329 23.9062C18.893 23.9555 18.6047 24.0891 18.3446 24.3773C17.9719 24.7781 17.9016 24.9961 17.8735 25.9945L17.8454 26.9297H15.6657H13.486L13.2821 27.1336C12.9375 27.4781 13.036 28.0336 13.479 28.2586C13.5844 28.3148 14.5758 28.3359 16.6782 28.3359H19.7227L19.9899 28.9688L20.2641 29.6086L20.0532 29.8406C19.6102 30.3469 19.5047 31.0781 19.8 31.6547C19.9829 32.0133 21.1008 33.0961 21.4524 33.2578C21.8883 33.4547 22.3876 33.4406 22.8305 33.2227C23.0274 33.1242 23.2383 32.9836 23.3016 32.9133C23.4141 32.7867 23.4422 32.7938 24.0399 33.0398L24.6657 33.293L24.743 33.75C24.8415 34.3406 25.0946 34.6992 25.5868 34.9594C25.9383 35.1422 26.0086 35.1562 26.8735 35.1562C27.3797 35.1562 27.9141 35.1211 28.0618 35.0789C28.6524 34.8961 29.0883 34.3266 29.1586 33.6375C29.1797 33.4266 29.236 33.2578 29.2782 33.2578C29.3204 33.2578 29.6086 33.1453 29.918 33.0117L30.4735 32.7656L30.6915 32.9766C31.1344 33.4055 31.8938 33.525 32.4493 33.2578C32.8149 33.082 33.9961 31.8867 34.1368 31.5492C34.3618 31.0008 34.2282 30.2695 33.8204 29.8477L33.6094 29.6297L33.8555 29.0742C33.9891 28.7648 34.1016 28.4695 34.1016 28.4203C34.1016 28.3711 34.2001 28.3359 34.3547 28.3359C34.8118 28.3359 35.1774 28.1813 35.5079 27.8438C35.9227 27.4289 36 27.1547 36 26.0297C36 25.1648 35.986 25.0945 35.8032 24.743C35.536 24.2297 35.1563 23.9695 34.5938 23.9133L34.1579 23.8711L33.9961 23.4422C33.9047 23.2031 33.7852 22.9148 33.7219 22.7953C33.6235 22.6055 33.6235 22.5773 33.7219 22.493C33.7852 22.4438 33.9258 22.2398 34.0383 22.043C34.411 21.3961 34.2985 20.693 33.7149 20.0461L33.4758 19.7859L33.4547 11.8758L33.4336 3.97266L33.2438 3.40313C32.9133 2.44688 32.2243 1.56797 31.5141 1.20234C30.7758 0.822659 31.5141 0.84375 16.6641 0.85078C8.98599 0.857815 2.79849 0.885937 2.65786 0.921093ZM30.6071 2.3625C31.036 2.51016 31.493 2.95312 31.7532 3.4875L31.9571 3.90234L31.9782 7.04531L31.9993 10.1953H16.6993H1.39927L1.42036 7.11563C1.44146 4.11328 1.44849 4.03594 1.60317 3.64922C1.86333 3.00235 2.38364 2.48906 2.95317 2.31328C3.05161 2.28516 9.23911 2.25703 16.7063 2.25703C28.9618 2.25 30.3118 2.26406 30.6071 2.3625ZM27.7032 18.9984C27.7032 19.343 27.7454 19.5891 27.8297 19.7578C27.9352 19.9828 28.0126 20.025 28.6172 20.2219C28.9829 20.3414 29.5454 20.5734 29.8618 20.7281C30.1852 20.8898 30.5157 21.0234 30.6071 21.0234C30.804 21.0234 31.0149 20.8828 31.4508 20.468L31.7813 20.1516L32.3086 20.6719C32.5969 20.9602 32.836 21.2273 32.836 21.2695C32.836 21.3117 32.6813 21.5016 32.4844 21.6914C32.2946 21.8813 32.0977 22.1414 32.0555 22.268C31.9852 22.4859 32.0063 22.5633 32.3297 23.2242C32.5266 23.618 32.7516 24.1664 32.829 24.4406C33.0399 25.1508 33.1805 25.2633 33.9469 25.3125L34.5586 25.3477L34.5797 26.0437C34.5938 26.4938 34.5727 26.768 34.5165 26.8313C34.4602 26.9016 34.2704 26.9297 33.8907 26.9297C33.1594 26.9297 33.054 27.0141 32.8008 27.8227C32.6954 28.1672 32.4704 28.7156 32.2946 29.0531C32.0063 29.6086 31.9852 29.6789 32.0555 29.8969C32.0977 30.0305 32.2946 30.2906 32.4844 30.4805C32.6813 30.6703 32.836 30.8602 32.836 30.9023C32.836 30.9938 31.8375 31.9922 31.7391 31.9922C31.704 31.9922 31.5 31.8164 31.2891 31.6055C30.7688 31.0781 30.6422 31.0641 29.8969 31.4508C29.5594 31.6266 29.011 31.8516 28.6735 31.95C27.8649 32.1961 27.7735 32.3086 27.7735 33.0469C27.7735 33.4266 27.7454 33.6164 27.6751 33.6727C27.6118 33.7289 27.3375 33.75 26.8876 33.7359L26.1915 33.7148L26.1563 33.1031C26.1071 32.3367 25.9946 32.1961 25.2844 31.9852C25.0102 31.9008 24.4688 31.6758 24.0821 31.4859C23.4422 31.1625 23.3649 31.1414 23.1329 31.2117C22.9993 31.2539 22.7321 31.4438 22.5352 31.6406C22.3454 31.8305 22.1555 31.9922 22.1133 31.9922C22.0711 31.9922 21.811 31.7602 21.5227 31.4719C20.9532 30.9023 20.9391 30.825 21.368 30.5227C21.6211 30.3398 21.8672 29.9531 21.8672 29.7422C21.8672 29.6508 21.7266 29.3063 21.5579 28.9758C21.3891 28.6453 21.1782 28.132 21.0938 27.8438C20.8618 27.0773 20.7422 26.9719 19.9829 26.9297L19.3711 26.8945L19.35 26.1L19.329 25.3125H19.8422C20.1868 25.3125 20.4329 25.2703 20.6016 25.1859C20.8266 25.0805 20.8688 25.0031 21.0938 24.3281C21.2344 23.9203 21.4665 23.3719 21.6071 23.1047C21.7477 22.8375 21.8672 22.5563 21.8672 22.4859C21.8672 22.275 21.6915 21.9938 21.3469 21.6562C21.1711 21.4875 21.0235 21.3117 21.0235 21.2766C21.0235 21.157 21.9586 20.25 22.0782 20.25C22.1415 20.25 22.3172 20.3766 22.4649 20.5383C22.7883 20.8688 23.0555 21.0234 23.3016 21.0234C23.393 21.0234 23.7446 20.8828 24.068 20.7141C24.3985 20.5383 24.8977 20.3273 25.186 20.25C25.5375 20.1445 25.7626 20.032 25.8961 19.8914C26.0719 19.7016 26.086 19.6383 26.086 19.1391C26.086 18.8367 26.1071 18.5625 26.1352 18.5414C26.1563 18.5133 26.5219 18.4922 26.9438 18.4922H27.7032V18.9984Z" fill="white"/>
<path d="M5.97656 3.97266C5.54063 4.09219 4.95 4.47188 4.73203 4.76719C4.33828 5.30156 4.25391 5.56172 4.25391 6.25781C4.25391 6.81328 4.28203 6.98203 4.41563 7.24922C4.67578 7.77656 5.02734 8.12813 5.53359 8.38125C5.94844 8.58516 6.075 8.61328 6.57422 8.61328C7.04531 8.61328 7.20703 8.57812 7.55859 8.41641C8.1 8.16328 8.59219 7.64297 8.78906 7.11563C9 6.56719 8.96484 5.7375 8.71875 5.23828C8.22656 4.22578 7.03828 3.68438 5.97656 3.97266ZM7.18594 5.53359C7.61484 5.92031 7.62891 6.56016 7.22109 6.93984C6.89766 7.23516 6.56016 7.29844 6.20859 7.12969C5.55469 6.80625 5.43516 6.01172 5.96953 5.52656C6.25781 5.25938 6.89062 5.26641 7.18594 5.53359Z" fill="white"/>
<path d="M12.1571 3.95839C10.9407 4.30292 10.1954 5.45605 10.4133 6.65839C10.561 7.45995 11.0391 8.07167 11.8055 8.43026C12.361 8.69042 13.1485 8.69042 13.718 8.42323C14.2243 8.1912 14.6602 7.7623 14.8993 7.24901C15.054 6.91855 15.0821 6.75683 15.0821 6.25761C15.0821 5.74433 15.054 5.6037 14.8852 5.25917C14.393 4.2537 13.1766 3.67011 12.1571 3.95839ZM13.3594 5.54745C13.7813 5.85683 13.8024 6.53183 13.4016 6.93261C13.0923 7.24198 12.7548 7.29823 12.361 7.10839C11.9813 6.92558 11.8126 6.65136 11.8126 6.22948C11.8126 5.9623 11.8548 5.86386 12.0446 5.65292C12.4032 5.25917 12.9235 5.21698 13.3594 5.54745Z" fill="white"/>
<path d="M20.5805 3.94453C19.1391 4.28203 18.3235 5.88516 18.9071 7.21406C19.1039 7.65 19.6383 8.19141 20.1024 8.41641L20.4961 8.61328H24.2227C27.9492 8.61328 27.9492 8.61328 28.2938 8.45156C28.8281 8.2125 29.2008 7.86094 29.461 7.37578C30.0305 6.3 29.7141 5.00625 28.7016 4.31016C28.0828 3.88125 27.9 3.86719 24.1875 3.87422C22.3524 3.88125 20.7281 3.90937 20.5805 3.94453ZM27.9071 5.47734C28.336 5.78672 28.4555 6.34219 28.1742 6.75703C27.8508 7.24922 27.893 7.24219 24.3211 7.24219C22.5563 7.24219 21.0094 7.22109 20.8828 7.2C20.5805 7.13672 20.2078 6.75703 20.1516 6.44062C20.0883 6.12422 20.2992 5.60391 20.5383 5.47734C20.8828 5.29453 21.1641 5.28047 24.3633 5.29453L27.668 5.30859L27.9071 5.47734Z" fill="white"/>
<path d="M25.875 21.9092C24.6938 22.2185 23.5899 23.1115 23.0766 24.1943C22.711 24.9467 22.6125 25.474 22.6547 26.3881C22.6829 26.9576 22.7321 27.2037 22.8868 27.5975C23.4 28.8842 24.3071 29.756 25.6079 30.2131C26.2688 30.4521 27.4219 30.4803 28.0899 30.2764C29.5524 29.8404 30.6844 28.7084 31.1204 27.2459C31.3102 26.606 31.2961 25.5584 31.0922 24.8904C30.6422 23.435 29.3907 22.2396 27.9704 21.9021C27.4149 21.7756 26.3813 21.7756 25.875 21.9092ZM28.1532 23.4701C29.9672 24.3209 30.4032 26.6412 29.0321 28.0896C27.6399 29.5662 25.2493 29.2006 24.3493 27.3725C24.1313 26.9295 24.0891 26.7607 24.061 26.2685C24.0258 25.5443 24.1524 25.0662 24.5321 24.4967C24.8766 23.9764 25.411 23.5685 26.0086 23.3576C26.6766 23.1256 27.5063 23.1678 28.1532 23.4701Z" fill="white"/>
<path d="M11.1305 15.6799C11.0462 15.715 10.9266 15.8205 10.8633 15.9119C10.7298 16.1158 9.3446 21.8392 9.33053 22.24C9.3235 22.465 9.35866 22.5494 9.5485 22.7181C9.94928 23.0767 10.5118 22.9291 10.6805 22.4088C10.8423 21.9095 12.1008 16.5447 12.1079 16.3408C12.1079 16.0455 11.9954 15.8416 11.7423 15.715C11.5173 15.5955 11.3626 15.5885 11.1305 15.6799Z" fill="white"/>
<path d="M6.42658 16.2633C6.13127 16.432 4.14845 18.7312 4.06408 18.9984C3.92345 19.4695 4.05001 19.6945 5.17501 20.9602C5.73751 21.593 6.26486 22.1695 6.3422 22.2328C6.42658 22.3102 6.60236 22.3594 6.77814 22.3594C7.18595 22.3594 7.45314 22.0852 7.45314 21.6773C7.45314 21.4102 7.39689 21.3258 6.53908 20.3555C6.03986 19.793 5.62501 19.3008 5.62501 19.2727C5.62501 19.2445 5.80783 19.0195 6.03283 18.7664C7.50236 17.107 7.45314 17.1703 7.45314 16.868C7.45314 16.3336 6.88361 15.9961 6.42658 16.2633Z" fill="white"/>
<path d="M14.2172 16.3477C13.9711 16.5586 13.9008 16.8328 14.0274 17.1211C14.0766 17.2336 14.5055 17.7609 14.9695 18.2812C15.4336 18.8016 15.8203 19.2516 15.8203 19.2727C15.8203 19.3008 15.4195 19.7648 14.9344 20.3133C13.8797 21.5016 13.7672 21.7688 14.182 22.1766C14.3156 22.3172 14.4352 22.3594 14.6531 22.3594C14.8078 22.3594 14.9906 22.3172 15.0539 22.268C15.3633 22.0359 17.3039 19.7648 17.3742 19.5609C17.5219 19.118 17.4094 18.893 16.6078 17.9789C16.193 17.5078 15.6516 16.9102 15.3984 16.643C14.9977 16.2352 14.9063 16.1719 14.6813 16.1719C14.5125 16.1719 14.3578 16.2281 14.2172 16.3477Z" fill="white"/>
<path d="M10.2586 27.0349C9.85079 27.2599 9.8297 27.8365 10.2164 28.167C10.3992 28.3216 10.4836 28.3427 10.7156 28.3146C11.1094 28.2584 11.3203 28.0052 11.3203 27.5974C11.3203 27.3443 11.2852 27.267 11.1024 27.1123C10.8633 26.9084 10.5469 26.8802 10.2586 27.0349Z" fill="white"/>
</g>
<defs>
<clipPath id="clip0_178_51">
<rect width="36" height="36" fill="white"/>
</clipPath>
</defs>
</svg>
