<svg width="39" height="36" viewBox="0 0 39 36" fill="none" xmlns="http://www.w3.org/2000/svg">
<path d="M18.4456 0.556816C16.1352 2.97979 14.7174 6.27294 14.4773 9.75362C14.4098 10.7438 14.4623 12.2141 14.5974 13.0243L14.6424 13.3393L13.2396 15.0122C12.3994 16.0174 11.7543 16.8575 11.6418 17.1051C11.4542 17.4876 11.4392 17.6077 11.4167 18.7254C11.3867 19.9106 11.3867 19.9331 11.5668 20.1432C11.6943 20.2932 11.8218 20.3532 11.9718 20.3457C12.1144 20.3457 12.9395 19.9181 14.1998 19.213C15.3025 18.5904 16.2252 18.0803 16.2552 18.0803C16.2927 18.0803 16.4127 18.2603 16.5327 18.4853L16.7503 18.8904L16.4802 19.9631C16.2552 20.8708 16.2252 21.0734 16.3002 21.2309C16.4727 21.591 16.5928 21.606 19.2033 21.606C21.8138 21.606 21.9338 21.591 22.1063 21.2309C22.1814 21.0734 22.1513 20.8708 21.9263 19.9631L21.6562 18.8904L21.8738 18.4853C21.9938 18.2603 22.1213 18.0803 22.1513 18.0803C22.1889 18.0803 23.1115 18.5904 24.2143 19.213C25.407 19.8806 26.2997 20.3457 26.4272 20.3457C26.5547 20.3532 26.7047 20.2857 26.8023 20.1882C26.9598 20.0381 26.9673 19.9631 26.9673 18.7704C26.9673 17.5702 26.9598 17.5026 26.7723 17.1051C26.6522 16.865 25.9996 16.0024 25.1669 15.0122L23.7642 13.3393L23.8092 13.0243C23.9442 12.2141 23.9967 10.7438 23.9292 9.75362C23.6891 6.27294 22.2714 2.97979 19.9609 0.556816C19.2483 -0.185831 19.1583 -0.185831 18.4456 0.556816ZM19.6909 1.92959C20.1935 2.5372 20.7861 3.42238 21.2212 4.21754L21.5362 4.80265H19.2033H16.8628L17.1854 4.21754C17.7705 3.14482 19.0157 1.42699 19.2033 1.42699C19.2408 1.42699 19.4583 1.65203 19.6909 1.92959ZM22.1889 6.52799C23.119 9.47607 23.029 12.9493 21.9488 15.7548C21.6713 16.4599 21.1386 17.5552 20.9136 17.8702L20.7711 18.0803H19.2108C17.823 18.0803 17.6355 18.0653 17.5379 17.9452C17.3804 17.7727 16.7803 16.565 16.5027 15.8673C15.43 13.1593 15.2725 9.85865 16.0902 6.96308C16.1952 6.61051 16.3077 6.22793 16.3527 6.12291L16.4277 5.92787L19.2183 5.94287L22.0088 5.96538L22.1889 6.52799ZM15.1075 15.2597C15.1825 15.5223 15.355 16.0174 15.4975 16.3624C15.6326 16.7075 15.7226 17.0151 15.6851 17.0526C15.6251 17.1126 12.602 18.8304 12.557 18.8304C12.4894 18.8304 12.5495 17.8702 12.6245 17.6527C12.707 17.4351 14.8299 14.7871 14.9274 14.7796C14.9499 14.7796 15.0249 14.9972 15.1075 15.2597ZM24.5593 16.0474C25.1294 16.7225 25.6395 17.3826 25.707 17.5102C25.7746 17.6377 25.8421 17.9902 25.8646 18.2903L25.9021 18.8454L25.6095 18.6954C25.1594 18.4628 22.774 17.1051 22.714 17.0451C22.6839 17.0151 22.774 16.7075 22.909 16.3624C23.0515 16.0174 23.2241 15.5223 23.2991 15.2597C23.3816 14.9972 23.4641 14.7871 23.4866 14.7946C23.5166 14.8096 23.9967 15.3722 24.5593 16.0474ZM20.7186 19.7681C20.7861 20.0532 20.8536 20.3382 20.8536 20.3832C20.8536 20.4582 20.471 20.4807 19.2033 20.4807C18.048 20.4807 17.5529 20.4582 17.5529 20.3982C17.5529 20.3157 17.7555 19.4905 17.8155 19.2955C17.8455 19.2205 18.1606 19.2055 19.2183 19.2205L20.5835 19.243L20.7186 19.7681Z" fill="white"/>
<path d="M18.6032 7.90071C18.1306 8.03573 17.7631 8.27578 17.4105 8.67336C16.6604 9.52853 16.6829 10.9013 17.463 11.7865C18.0481 12.4541 19.1583 12.7167 20.036 12.3866C21.5738 11.809 22.0539 9.85109 20.9587 8.63585C20.3586 7.96822 19.4059 7.67566 18.6032 7.90071ZM19.7285 9.09344C19.9085 9.19096 20.1185 9.35599 20.2011 9.46101C20.6286 10.0536 20.4186 10.9763 19.7735 11.2839C18.9408 11.6815 17.9881 11.1113 17.9881 10.2187C17.9881 9.64855 18.2282 9.27348 18.7533 9.04843C19.1208 8.8909 19.3459 8.8984 19.7285 9.09344Z" fill="white"/>
<path d="M4.85298 9.68628C4.16284 9.85131 3.60023 10.3014 3.24016 10.9765L3.03762 11.3666L3.01512 21.9212L3.00011 32.4833H1.67985C0.374596 32.4833 0.367095 32.4833 0.179558 32.6783C-0.0154804 32.8658 -0.0154804 32.8808 0.0145255 33.826C0.0370299 34.7412 0.0445314 34.8012 0.262074 35.1538C0.404602 35.3788 0.629647 35.6039 0.854691 35.7464L1.22226 35.9715L18.9333 35.994C28.6777 36.009 36.7868 35.994 36.9518 35.9715C37.3869 35.9114 37.9195 35.5364 38.167 35.1163C38.3546 34.8012 38.3696 34.6962 38.3921 33.8185C38.4221 32.8808 38.4221 32.8658 38.2271 32.6783C38.0395 32.4833 38.032 32.4833 36.7268 32.4833H35.4065L35.3915 21.9587L35.369 11.4416L35.174 11.0215C34.9264 10.4889 34.5213 10.0839 33.9887 9.83631L33.5686 9.64127L29.6229 9.61877C25.7071 9.59626 25.6846 9.59626 25.482 9.75379C25.227 9.95633 25.2045 10.3539 25.4295 10.579C25.5721 10.7215 25.6771 10.729 29.3528 10.729C31.5882 10.729 33.2236 10.759 33.3811 10.804C33.6887 10.8865 34.0862 11.2616 34.1988 11.5767C34.2588 11.7267 34.2813 15.0198 34.2813 22.1387V32.4833H33.3286H32.3684L32.3609 31.7481C32.3534 30.4429 31.9258 29.4452 30.9431 28.47C29.9229 27.4423 28.8502 27.0372 27.3574 27.1047C26.5923 27.1347 26.5472 27.1347 26.4647 26.9772C26.2997 26.6696 25.5496 25.9495 25.1745 25.7394C24.3943 25.2969 23.3816 25.1618 22.5265 25.3794L22.1439 25.4844L22.0989 25.2068C21.9713 24.4192 21.2362 23.504 20.4185 23.1214C20.0435 22.9414 19.9009 22.9189 19.2033 22.9189C18.5057 22.9189 18.3631 22.9414 17.9881 23.1214C17.1704 23.504 16.4353 24.4192 16.3077 25.2068L16.2627 25.4844L15.8801 25.3794C15.025 25.1618 14.0123 25.2969 13.2321 25.7394C12.8571 25.9495 12.1069 26.6696 11.9419 26.9772C11.8594 27.1347 11.8143 27.1347 11.0492 27.1047C9.5564 27.0372 8.48369 27.4423 7.46349 28.47C6.4808 29.4452 6.05321 30.4429 6.04571 31.7481L6.03821 32.4833H5.08552H4.12533V22.1387C4.12533 15.0198 4.14784 11.7267 4.20785 11.5767C4.32037 11.2616 4.71795 10.8865 5.02551 10.804C5.18304 10.759 6.81837 10.729 9.06131 10.729C12.7295 10.729 12.8345 10.7215 12.9771 10.579C13.2021 10.3539 13.1796 9.95633 12.9321 9.7613C12.737 9.60376 12.6695 9.60376 8.93378 9.61127C6.84837 9.61877 5.01051 9.64877 4.85298 9.68628ZM19.991 24.1866C20.8011 24.5617 21.1312 25.2668 20.9737 26.2946C20.9286 26.6246 20.9436 26.7071 21.0787 26.8797C21.2962 27.1572 21.6263 27.1497 22.0089 26.8572C22.4514 26.5196 22.954 26.3846 23.5842 26.4221C24.4768 26.4821 25.212 26.9847 25.6096 27.8249C25.8946 28.41 26.0597 28.485 26.7123 28.32C27.3349 28.1549 28.3026 28.1999 28.8877 28.425C29.7954 28.77 30.6731 29.6177 30.9881 30.4579C31.1907 30.983 31.3182 31.8381 31.2507 32.1982L31.1982 32.4833H20.9061C9.69143 32.4833 10.3591 32.4608 10.2465 32.8959C10.194 33.1134 10.3591 33.4885 10.5391 33.5635C10.6066 33.586 16.6528 33.6085 23.9742 33.6085H37.2819V34.0286C37.2819 34.3886 37.2519 34.4712 37.0643 34.6662L36.8468 34.8837H19.2033H1.55983L1.34229 34.6662C1.15475 34.4712 1.12474 34.3886 1.12474 34.0286V33.6085H4.83047C8.46119 33.6085 8.5362 33.6085 8.73124 33.451C8.97879 33.2559 8.99379 32.9034 8.76125 32.6558C8.61872 32.4983 8.5362 32.4833 7.90608 32.4833H7.20844L7.15593 32.1982C7.07342 31.7556 7.24595 30.8104 7.5085 30.2478C7.79356 29.6552 8.46869 28.9501 9.0463 28.6425C9.84146 28.2149 10.8392 28.0949 11.7168 28.3275C12.347 28.485 12.512 28.4025 12.797 27.8249C13.1946 26.9847 13.9298 26.4821 14.8224 26.4221C15.4526 26.3846 15.9552 26.5196 16.3978 26.8572C16.7803 27.1497 17.1104 27.1572 17.3279 26.8797C17.463 26.6996 17.478 26.6171 17.433 26.3321C17.3504 25.882 17.3804 25.4019 17.508 25.1093C17.778 24.4567 18.4682 24.0066 19.2033 24.0066C19.4809 24.0066 19.7434 24.0666 19.991 24.1866Z" fill="white"/>
</svg>
