<svg width="38" height="38" viewBox="0 0 38 38" fill="none" xmlns="http://www.w3.org/2000/svg">
<path d="M26.4871 0H10.845C4.05053 0 0 4.05053 0 10.845V26.4685C0 33.2816 4.05053 37.3321 10.845 37.3321H26.4685C33.2629 37.3321 37.3134 33.2816 37.3134 26.4871V10.845C37.3321 4.05053 33.2816 0 26.4871 0ZM27.9991 28.4657H9.33303C8.56772 28.4657 7.93307 27.8311 7.93307 27.0658C7.93307 26.3005 8.56772 25.6658 9.33303 25.6658H27.9991C28.7644 25.6658 29.399 26.3005 29.399 27.0658C29.399 27.8311 28.7644 28.4657 27.9991 28.4657ZM27.9991 20.066H9.33303C8.56772 20.066 7.93307 19.4314 7.93307 18.6661C7.93307 17.9007 8.56772 17.2661 9.33303 17.2661H27.9991C28.7644 17.2661 29.399 17.9007 29.399 18.6661C29.399 19.4314 28.7644 20.066 27.9991 20.066ZM27.9991 11.6663H9.33303C8.56772 11.6663 7.93307 11.0316 7.93307 10.2663C7.93307 9.50102 8.56772 8.86637 9.33303 8.86637H27.9991C28.7644 8.86637 29.399 9.50102 29.399 10.2663C29.399 11.0316 28.7644 11.6663 27.9991 11.6663Z" fill="white"/>
</svg>
