<svg width="36" height="36" viewBox="0 0 36 36" fill="none" xmlns="http://www.w3.org/2000/svg">
<path d="M8.61328 1.30059L8.4375 1.46934V8.71855V15.9678L8.61328 16.1365C8.83828 16.3686 9.16172 16.3686 9.38672 16.1365L9.5625 15.9678V9.10527V2.2498H14.4492H19.343L19.5117 2.07402C19.7438 1.84902 19.7438 1.52559 19.5117 1.30059L19.343 1.1248H14.0625H8.78203L8.61328 1.30059Z" fill="white"/>
<path d="M20.9883 1.30059C20.8758 1.40605 20.8125 1.55371 20.8125 1.6873C20.8125 1.8209 20.8758 1.96855 20.9883 2.07402L21.157 2.2498H23.8008H26.4375V9.10527V15.9678L26.6133 16.1365C26.8383 16.3686 27.1617 16.3686 27.3867 16.1365L27.5625 15.9678V8.71855V1.46934L27.3867 1.30059L27.218 1.1248H24.1875H21.157L20.9883 1.30059Z" fill="white"/>
<path d="M13.9499 4.37334L12.9374 5.37178L12.4874 4.93584C12.1359 4.59131 11.9882 4.49991 11.8195 4.49991C11.4116 4.49991 11.1515 4.94991 11.3413 5.31553C11.496 5.61787 12.5999 6.66553 12.8109 6.71475C12.9163 6.74287 13.057 6.74287 13.1273 6.72178C13.1976 6.70069 13.8163 6.11709 14.5054 5.42803C15.6023 4.32412 15.7499 4.14834 15.7499 3.94444C15.7499 3.64209 15.4827 3.37491 15.1804 3.37491C14.9835 3.37491 14.8218 3.50147 13.9499 4.37334Z" fill="white"/>
<path d="M17.0508 4.67578C16.9383 4.78125 16.875 4.92891 16.875 5.0625C16.875 5.19609 16.9383 5.34375 17.0508 5.44922L17.2195 5.625H20.8125H24.4055L24.5742 5.44922C24.6867 5.34375 24.75 5.19609 24.75 5.0625C24.75 4.92891 24.6867 4.78125 24.5742 4.67578L24.4055 4.5H20.8125H17.2195L17.0508 4.67578Z" fill="white"/>
<path d="M13.9499 8.31084L12.9374 9.30928L12.4874 8.87334C12.1359 8.52881 11.9882 8.43741 11.8195 8.43741C11.4116 8.43741 11.1515 8.88741 11.3413 9.25303C11.496 9.55537 12.5999 10.603 12.8109 10.6522C12.9163 10.6804 13.057 10.6804 13.1273 10.6593C13.1976 10.6382 13.8163 10.0546 14.5054 9.36553C15.6023 8.26162 15.7499 8.08584 15.7499 7.88194C15.7499 7.57959 15.4827 7.31241 15.1804 7.31241C14.9835 7.31241 14.8218 7.43897 13.9499 8.31084Z" fill="white"/>
<path d="M17.0508 8.61328C16.9383 8.71875 16.875 8.86641 16.875 9C16.875 9.13359 16.9383 9.28125 17.0508 9.38672L17.2195 9.5625H20.8125H24.4055L24.5742 9.38672C24.6867 9.28125 24.75 9.13359 24.75 9C24.75 8.86641 24.6867 8.71875 24.5742 8.61328L24.4055 8.4375H20.8125H17.2195L17.0508 8.61328Z" fill="white"/>
<path d="M13.9499 12.2487L12.9374 13.2471L12.4874 12.8112C11.9671 12.312 11.721 12.2487 11.4257 12.551C11.0882 12.8815 11.2077 13.1627 12.0374 13.9713C12.621 14.5338 12.8671 14.6815 13.1273 14.5971C13.1976 14.576 13.8163 13.9924 14.5054 13.3034C15.6023 12.1995 15.7499 12.0237 15.7499 11.8198C15.7499 11.5174 15.4827 11.2502 15.1804 11.2502C14.9835 11.2502 14.8218 11.3768 13.9499 12.2487Z" fill="white"/>
<path d="M17.0508 12.5508C16.9383 12.6562 16.875 12.8039 16.875 12.9375C16.875 13.0711 16.9383 13.2188 17.0508 13.3242L17.2195 13.5H20.8125H24.4055L24.5742 13.3242C24.6867 13.2188 24.75 13.0711 24.75 12.9375C24.75 12.8039 24.6867 12.6562 24.5742 12.5508L24.4055 12.375H20.8125H17.2195L17.0508 12.5508Z" fill="white"/>
<path d="M17.8242 14.7234C17.1422 14.8852 16.6219 15.1031 16.0664 15.4758C15.6375 15.7641 15.1383 16.2703 13.3102 18.3023C10.7086 21.1711 10.6875 21.1992 10.6875 21.4242C10.6875 21.6773 11.1867 22.1695 11.7352 22.4578C12.5859 22.9008 13.4508 23.0203 14.3297 22.8164C15.1664 22.6195 15.4969 22.4016 16.5797 21.3469L17.5781 20.3625L18.1687 20.5523L18.7594 20.7492L19.8773 21.8883C20.4961 22.5141 21.7687 23.8219 22.7109 24.7992C23.6461 25.7695 24.4617 26.5852 24.518 26.6062C24.7641 26.7047 25.0242 26.6414 25.1648 26.4656C25.3336 26.2547 25.3477 26.0789 25.2352 25.8539C25.1227 25.65 19.4977 19.8492 19.35 19.793C18.8438 19.582 17.5781 19.1953 17.4094 19.1953C17.2336 19.1953 17.0227 19.3711 16.0945 20.2852C14.7445 21.6211 14.5055 21.7547 13.5352 21.7617C12.8953 21.7617 12.3398 21.6211 12.1711 21.4172C12.0656 21.2906 16.1227 16.8047 16.7062 16.4109C17.5711 15.8344 18.8156 15.6305 19.7719 15.9117C19.9898 15.975 21.4102 16.6008 22.9289 17.2969L25.6922 18.5625H27.1898H28.6875L28.7016 23.5477C28.7227 28.4836 28.7227 28.5398 28.8703 28.7367C28.9477 28.8422 29.1234 29.0039 29.25 29.0883C29.482 29.25 29.5102 29.25 31.7812 29.25C34.0523 29.25 34.0805 29.25 34.3125 29.0953C34.8047 28.7578 34.8398 28.6594 34.8609 27.3867C34.882 26.2336 34.882 26.2266 34.7062 26.0508C34.4742 25.8187 34.1508 25.8187 33.9258 26.0508C33.757 26.2125 33.75 26.2547 33.75 27.1758V28.125H31.7812H29.8125V22.5V16.875H31.7812H33.75V20.6367V24.4055L33.9258 24.5742C34.1508 24.8062 34.4742 24.8062 34.6992 24.5742L34.875 24.4055V20.5172V16.6289L34.7133 16.3477C34.6148 16.1648 34.4531 16.0102 34.2422 15.9047C33.9398 15.757 33.8695 15.75 31.7812 15.75C29.693 15.75 29.6227 15.757 29.3203 15.9047C28.8984 16.1227 28.6875 16.4883 28.6875 17.0297V17.4375H27.3234H25.9523L23.3297 16.2352C21.8883 15.5742 20.468 14.9484 20.1797 14.857C19.5188 14.6391 18.45 14.5758 17.8242 14.7234Z" fill="white"/>
<path d="M1.75776 15.9047C1.54683 16.0102 1.38511 16.1649 1.28667 16.3477C1.13198 16.6289 1.12495 16.6641 1.12495 19.3922V22.1555L1.30073 22.3242C1.4062 22.4367 1.55386 22.5 1.68745 22.5C1.82104 22.5 1.9687 22.4367 2.07417 22.3242L2.24995 22.1555V19.5117V16.875H4.2187H6.18745V22.5V28.125H4.2187H2.24995V26.0508V23.9696L2.07417 23.8008C1.84917 23.5688 1.52573 23.5688 1.2937 23.8008L1.11792 23.9766L1.13901 26.2547C1.16011 28.4414 1.16714 28.5469 1.30776 28.7367C1.38511 28.8422 1.56089 29.0039 1.68745 29.0883C1.91948 29.25 1.94761 29.25 4.2187 29.25C6.48979 29.25 6.51792 29.25 6.74995 29.0883C7.08745 28.8633 7.2562 28.6032 7.29136 28.2375C7.31245 28.0617 7.33354 27.9141 7.34058 27.9141C7.34761 27.9141 8.28979 28.336 9.43589 28.8422L11.5171 29.7774L13.971 32.168C15.4265 33.5953 16.5304 34.6219 16.6992 34.6992C17.1281 34.9172 17.9929 34.8961 18.45 34.6641C18.8367 34.4672 19.2234 34.0524 19.3359 33.7149L19.4062 33.4899L19.814 33.6305C20.7492 33.9469 21.839 33.4407 22.1906 32.5196L22.296 32.2313L22.7812 32.2594C23.421 32.2946 23.8781 32.1399 24.2789 31.7532C24.4476 31.5914 24.6445 31.3172 24.7148 31.1414L24.8484 30.825H25.4109C25.889 30.825 26.0367 30.7969 26.339 30.6352C27.0281 30.2836 27.4218 29.6227 27.4218 28.8282C27.4218 28.111 26.8804 27.2813 26.4164 27.2813C26.2476 27.2813 25.875 27.6539 25.875 27.8297C25.875 27.9 25.9593 28.0899 26.0578 28.2375C26.4445 28.8071 26.2898 29.461 25.7203 29.6508C25.214 29.8196 25.1367 29.7633 22.971 27.5625C21.1218 25.6852 20.946 25.5235 20.7281 25.5235C20.4117 25.5235 20.1796 25.7625 20.1796 26.086C20.1796 26.2969 20.3414 26.4797 21.8953 28.0547C22.8445 29.0039 23.6531 29.8688 23.6882 29.9813C23.9976 30.7899 23.1468 31.4789 22.4437 30.9938C22.3242 30.9024 21.382 29.9742 20.3554 28.9196C18.3726 26.8946 18.246 26.7961 17.8875 27.0352C17.6765 27.1688 17.557 27.4571 17.6203 27.661C17.6484 27.7383 18.45 28.6032 19.4062 29.5664C20.8828 31.0571 21.157 31.3664 21.1992 31.5844C21.3046 32.1469 20.7703 32.7024 20.2359 32.5899C20.0531 32.5477 19.5398 32.0766 17.9226 30.4735C16.0593 28.6172 15.8273 28.4063 15.6234 28.4063C15.3421 28.4063 15.0468 28.6735 15.0468 28.9266C15.0468 29.1586 15.2226 29.3625 16.9242 31.0852L18.3515 32.5266V32.8782C18.3515 33.2719 18.232 33.4899 17.9296 33.6446C17.6554 33.7852 17.3742 33.7782 17.121 33.6164C17.0085 33.5461 15.8343 32.4282 14.5125 31.1414L12.1218 28.793L9.7312 27.7383L7.34761 26.6766L7.32651 22.6196L7.31245 18.5625H9.38667H11.4679L11.6367 18.3867C11.8265 18.2039 11.8546 18.0282 11.7351 17.768C11.5945 17.4586 11.4328 17.4375 9.31636 17.4375H7.31245V17.0297C7.31245 16.4883 7.10151 16.1227 6.67964 15.9047C6.3773 15.7571 6.30698 15.75 4.2187 15.75C2.13042 15.75 2.06011 15.7571 1.75776 15.9047Z" fill="white"/>
</svg>
