<svg width="36" height="36" viewBox="0 0 36 36" fill="none" xmlns="http://www.w3.org/2000/svg">
<g clip-path="url(#clip0_178_75)">
<path d="M1.72266 0.063282C1.08984 0.21797 0.513281 0.696095 0.210938 1.30078L0.0351562 1.65234V11.25V20.8477L0.196875 21.1641C0.442969 21.6703 0.724219 21.9656 1.20938 22.2258L1.65234 22.4648H8.4375H15.2227L15.5812 22.275C16.1156 21.9938 16.3336 21.7828 16.6008 21.2906L16.8398 20.8477L16.8609 13.6898L16.875 6.53906L16.7062 6.36328C16.4953 6.15234 16.1859 6.13125 15.9539 6.32109L15.7852 6.45469L15.75 13.5563C15.7148 20.5945 15.7148 20.6648 15.5672 20.8547C15.4898 20.9602 15.3352 21.1148 15.2297 21.1922C15.0398 21.3398 14.9906 21.3398 8.4375 21.3398C1.88437 21.3398 1.83516 21.3398 1.64531 21.1922C1.53984 21.1148 1.38516 20.9602 1.30781 20.8547C1.16016 20.6648 1.16016 20.6438 1.16016 11.25C1.16016 1.85625 1.16016 1.83516 1.30781 1.64531C1.38516 1.53984 1.53984 1.38516 1.64531 1.30781C1.83516 1.16016 1.91953 1.16016 6.53906 1.13906L11.2359 1.125L11.2641 2.54531C11.2852 3.85312 11.2992 4.00078 11.4469 4.28906C11.693 4.78828 11.9742 5.09063 12.4594 5.35078L12.9023 5.58984L14.7094 5.61094L16.5164 5.63203L16.6992 5.45625C16.8117 5.33672 16.875 5.20312 16.875 5.04844C16.875 4.8375 16.65 4.59844 14.4633 2.41172L12.0586 0L6.99609 0.00703239C4.21172 0.0140629 1.84219 0.0351562 1.72266 0.063282ZM14.1891 4.48594C13.2891 4.51406 13.0711 4.47188 12.7898 4.23984C12.4453 3.94453 12.375 3.69844 12.375 2.76328V1.93359L13.6406 3.19922L14.9062 4.46484L14.1891 4.48594Z" fill="white"/>
<path d="M17.6132 8.04379C17.4023 8.25473 17.3812 8.5641 17.5711 8.79613L17.7046 8.96488L21.9937 9.00004C26.1914 9.0352 26.2898 9.0352 26.4796 9.18285C26.9507 9.53442 26.9648 9.5766 27 11.1938C27.0351 12.6422 27.0351 12.6704 27.2039 12.8039C27.4359 12.9938 27.7453 12.9727 27.9562 12.7618L28.139 12.5789L28.1109 11.0532L28.0898 9.52738L27.8507 9.08442C27.5906 8.59926 27.2953 8.31801 26.789 8.07192L26.4726 7.9102L22.1273 7.8891L17.789 7.86801L17.6132 8.04379Z" fill="white"/>
<path d="M4.24687 8.52188C4.09922 8.59219 3.9375 8.85234 3.9375 9.01406C3.9375 9.05625 4.33125 10.1602 4.81641 11.4539C5.37891 12.9445 5.75859 13.8586 5.85 13.9359C5.92734 14.0063 6.08203 14.0625 6.1875 14.0625C6.29297 14.0625 6.44766 14.0063 6.525 13.9359C6.61641 13.8586 6.99609 12.9445 7.55859 11.4539C8.04375 10.1602 8.4375 9.05625 8.4375 9.01406C8.4375 8.82422 8.26172 8.57812 8.07188 8.50078C7.90312 8.43047 7.82578 8.4375 7.63594 8.52188C7.425 8.62734 7.37578 8.73281 6.82031 10.2234C6.48984 11.0953 6.20859 11.8125 6.1875 11.8125C6.16641 11.8125 5.88516 11.0953 5.55469 10.2234C5.04141 8.85234 4.94297 8.62734 4.77422 8.53594C4.54922 8.42344 4.45078 8.41641 4.24687 8.52188Z" fill="white"/>
<path d="M10.8633 8.61328C10.7648 8.70469 10.6875 8.83125 10.6875 8.89453C10.6875 8.97891 10.6031 9 10.3008 9C9.82969 9 9.5625 9.20391 9.5625 9.5625C9.5625 9.92109 9.82969 10.125 10.3008 10.125H10.6875V11.5312V12.9375H10.3008C9.82969 12.9375 9.5625 13.1414 9.5625 13.5C9.5625 13.6336 9.62578 13.7812 9.73828 13.8867C9.90703 14.0625 9.92109 14.0625 11.25 14.0625C12.5789 14.0625 12.593 14.0625 12.7617 13.8867C12.9937 13.6617 12.9937 13.3383 12.7617 13.1133C12.6211 12.9656 12.5227 12.9375 12.1992 12.9375H11.8125V10.8633V8.78203L11.6367 8.61328C11.5312 8.50078 11.3836 8.4375 11.25 8.4375C11.1164 8.4375 10.9688 8.50078 10.8633 8.61328Z" fill="white"/>
<path d="M20.8477 13.5633C20.2148 13.718 19.6383 14.1961 19.3359 14.8008L19.1602 15.1523V24.75V34.3477L19.3219 34.6641C19.568 35.1703 19.8492 35.4656 20.3344 35.7258L20.7773 35.9648H27.5625H34.3477L34.7062 35.775C35.2406 35.4938 35.4586 35.2828 35.7258 34.7906L35.9648 34.3477L35.9859 27.1898L36 20.0391L35.8312 19.8633C35.6203 19.6523 35.3109 19.6313 35.0789 19.8211L34.9102 19.9547L34.875 27.0563C34.8398 34.0945 34.8398 34.1648 34.6922 34.3547C34.6148 34.4602 34.4602 34.6148 34.3547 34.6922C34.1648 34.8398 34.1156 34.8398 27.5625 34.8398C21.0094 34.8398 20.9602 34.8398 20.7703 34.6922C20.6648 34.6148 20.5102 34.4602 20.4328 34.3547C20.2852 34.1648 20.2852 34.1438 20.2852 24.75C20.2852 15.3563 20.2852 15.3352 20.4328 15.1453C20.5102 15.0398 20.6648 14.8852 20.7703 14.8078C20.9602 14.6602 21.0445 14.6602 25.6641 14.6391L30.3609 14.625L30.3891 16.0453C30.4102 17.3531 30.4242 17.5008 30.5719 17.7891C30.818 18.2883 31.0992 18.5906 31.5844 18.8508L32.0273 19.0898L33.8344 19.1109L35.6414 19.132L35.8242 18.9563C35.9367 18.8367 36 18.7031 36 18.5484C36 18.3375 35.775 18.0984 33.5883 15.9117L31.1836 13.5L26.1211 13.507C23.3367 13.5141 20.9672 13.5352 20.8477 13.5633ZM33.3141 17.9859C32.4141 18.0141 32.1961 17.9719 31.9148 17.7398C31.5703 17.4445 31.5 17.1984 31.5 16.2633V15.4336L32.7656 16.6992L34.0312 17.9648L33.3141 17.9859Z" fill="white"/>
<path d="M3.55078 15.3633C3.43828 15.4688 3.375 15.6164 3.375 15.75C3.375 15.8836 3.43828 16.0312 3.55078 16.1367L3.71953 16.3125H8.4375H13.1555L13.3242 16.1367C13.5563 15.9117 13.5563 15.5883 13.3242 15.3633L13.1555 15.1875H8.4375H3.71953L3.55078 15.3633Z" fill="white"/>
<path d="M23.3719 22.0219C23.2242 22.0922 23.0625 22.3523 23.0625 22.5141C23.0625 22.5563 23.4562 23.6602 23.9414 24.9539C24.5039 26.4445 24.8836 27.3586 24.975 27.4359C25.0523 27.5063 25.207 27.5625 25.3125 27.5625C25.418 27.5625 25.5727 27.5063 25.65 27.4359C25.7414 27.3586 26.1211 26.4445 26.6836 24.9539C27.1687 23.6602 27.5625 22.5563 27.5625 22.5141C27.5625 22.3242 27.3867 22.0781 27.1969 22.0008C27.0281 21.9305 26.9508 21.9375 26.7609 22.0219C26.55 22.1273 26.5008 22.2328 25.9453 23.7234C25.6148 24.5953 25.3336 25.3125 25.3125 25.3125C25.2914 25.3125 25.0102 24.5953 24.6797 23.7234C24.1664 22.3523 24.068 22.1273 23.8992 22.0359C23.6742 21.9234 23.5758 21.9164 23.3719 22.0219Z" fill="white"/>
<path d="M28.8633 22.1133C28.7508 22.2188 28.6875 22.3664 28.6875 22.5C28.6875 22.6336 28.7508 22.7812 28.8633 22.8867C29.025 23.0555 29.0812 23.0625 29.8125 23.0625C30.5437 23.0625 30.6 23.0695 30.7617 23.2383C31.1203 23.5898 31.0078 23.8008 30.0375 24.5813C28.8773 25.5094 28.6875 25.8047 28.6875 26.7398C28.6875 27.1547 28.7086 27.2391 28.8633 27.3867C29.032 27.5625 29.0461 27.5625 30.375 27.5625C31.7039 27.5625 31.718 27.5625 31.8867 27.3867C31.9992 27.2812 32.0625 27.1336 32.0625 27C32.0625 26.8664 31.9992 26.7188 31.8867 26.6133C31.725 26.4445 31.6828 26.4375 30.7617 26.4375C30.2414 26.4375 29.8125 26.4164 29.8125 26.3953C29.8125 26.2547 30.0516 26.0156 30.6984 25.4953C31.957 24.4898 32.2312 23.9695 31.9781 23.1047C31.8656 22.718 31.282 22.1344 30.8953 22.0219C30.7336 21.9727 30.2484 21.9375 29.8195 21.9375C29.0812 21.9375 29.025 21.9445 28.8633 22.1133Z" fill="white"/>
<path d="M8.04377 23.2381L7.86096 23.4209L7.88909 24.9467C7.91018 26.3529 7.92424 26.4936 8.0719 26.7889C8.31799 27.2881 8.59924 27.5904 9.0844 27.8506L9.52737 28.0896L13.8727 28.1107L18.211 28.1318L18.3867 27.9561C18.5977 27.7451 18.6188 27.4357 18.4289 27.2037L18.2953 27.035L14.0063 26.9998C9.80862 26.9646 9.71018 26.9646 9.52034 26.817C9.04924 26.4654 9.03518 26.4232 9.00002 24.8061C8.96487 23.3576 8.96487 23.3295 8.79612 23.1959C8.56409 23.0061 8.25471 23.0271 8.04377 23.2381Z" fill="white"/>
<path d="M22.6758 28.8633C22.5633 28.9688 22.5 29.1164 22.5 29.25C22.5 29.3836 22.5633 29.5312 22.6758 29.6367L22.8445 29.8125H27.5625H32.2805L32.4492 29.6367C32.6813 29.4117 32.6813 29.0883 32.4492 28.8633L32.2805 28.6875H27.5625H22.8445L22.6758 28.8633Z" fill="white"/>
</g>
<defs>
<clipPath id="clip0_178_75">
<rect width="36" height="36" fill="white"/>
</clipPath>
</defs>
</svg>
