<svg width="21" height="21" viewBox="0 0 21 21" fill="none" xmlns="http://www.w3.org/2000/svg">
<g clip-path="url(#clip0_600_18)">
<path d="M20.3729 10.1111C20.1942 9.86667 15.9371 4.12646 10.4999 4.12646C5.06274 4.12646 0.805391 9.86667 0.626914 10.1109C0.457695 10.3427 0.457695 10.6572 0.626914 10.8891C0.805391 11.1335 5.06274 16.8737 10.4999 16.8737C15.9371 16.8737 20.1942 11.1335 20.3729 10.8893C20.5423 10.6575 20.5423 10.3427 20.3729 10.1111ZM10.4999 15.555C6.49486 15.555 3.02606 11.7452 1.99922 10.4996C3.02473 9.25304 6.48626 5.44514 10.4999 5.44514C14.5048 5.44514 17.9733 9.25437 19.0006 10.5005C17.9751 11.7471 14.5135 15.555 10.4999 15.555Z" fill="white"/>
<path d="M10.5 6.54395C8.31868 6.54395 6.54395 8.31868 6.54395 10.5C6.54395 12.6813 8.31868 14.4561 10.5 14.4561C12.6813 14.4561 14.4561 12.6813 14.4561 10.5C14.4561 8.31868 12.6813 6.54395 10.5 6.54395ZM10.5 13.1374C9.04571 13.1374 7.86266 11.9543 7.86266 10.5C7.86266 9.04575 9.04575 7.86266 10.5 7.86266C11.9543 7.86266 13.1374 9.04575 13.1374 10.5C13.1374 11.9543 11.9543 13.1374 10.5 13.1374Z" fill="white"/>
</g>
<defs>
<clipPath id="clip0_600_18">
<rect width="20" height="20" fill="white" transform="translate(0.5 0.5)"/>
</clipPath>
</defs>
</svg>
