<svg width="137" height="26" viewBox="0 0 137 26" fill="none" xmlns="http://www.w3.org/2000/svg">
<path d="M20.327 20V8.824L20.107 7.064H24.155L30.359 13.356L31.217 14.324H31.459V7.064H35.683V20H32.009L25.629 13.642L24.771 12.608H24.551V20H20.327ZM40.0866 20V7.064H44.3106V20H40.0866ZM51.1869 20C50.1896 20 49.4563 19.956 48.9869 19.868C48.5176 19.78 48.2829 19.6773 48.2829 19.56L49.6029 16.722C49.9403 16.7807 50.6369 16.8393 51.6929 16.898C52.7489 16.942 54.1203 16.964 55.8069 16.964H57.5449C58.0583 16.964 58.4029 16.8907 58.5789 16.744C58.7549 16.5973 58.8429 16.3847 58.8429 16.106V15.886C58.8429 15.534 58.7549 15.292 58.5789 15.16C58.4029 15.028 58.0583 14.962 57.5449 14.962H52.5069C51.0256 14.962 49.9476 14.6907 49.2729 14.148C48.5983 13.5907 48.2609 12.6887 48.2609 11.442V10.65C48.2609 10.0047 48.3783 9.41067 48.6129 8.868C48.8623 8.32533 49.2803 7.89267 49.8669 7.57C50.4536 7.23267 51.2603 7.064 52.2869 7.064H59.5909C60.4856 7.064 61.2263 7.11533 61.8129 7.218C62.4143 7.32067 62.7149 7.43067 62.7149 7.548L62.0549 10.276C61.6443 10.232 60.8669 10.188 59.7229 10.144C58.5936 10.0853 57.1563 10.056 55.4109 10.056L53.8269 10.034C53.3723 10.034 53.0496 10.1 52.8589 10.232C52.6683 10.3493 52.5656 10.5767 52.5509 10.914V11.068C52.5509 11.4053 52.6536 11.64 52.8589 11.772C53.0643 11.904 53.3943 11.97 53.8489 11.97H58.6889C59.6276 11.97 60.4269 12.0653 61.0869 12.256C61.7469 12.4467 62.2529 12.7987 62.6049 13.312C62.9569 13.8107 63.1329 14.5513 63.1329 15.534V16.326C63.1329 17.426 62.8469 18.3133 62.2749 18.988C61.7176 19.6627 60.7423 20 59.3489 20H51.1869ZM67.3107 20V8.824L67.0907 7.042H77.2767C78.2594 7.042 79.044 7.152 79.6307 7.372C80.232 7.57733 80.6794 7.86333 80.9727 8.23C81.2807 8.582 81.4787 9 81.5667 9.484C81.6694 9.95333 81.7207 10.452 81.7207 10.98V12.718C81.7207 13.422 81.6034 14.0747 81.3687 14.676C81.1487 15.2627 80.7307 15.7393 80.1147 16.106C79.5134 16.458 78.6407 16.634 77.4967 16.634H75.9787C75.0547 16.634 74.1894 16.612 73.3827 16.568C72.5907 16.524 71.9967 16.4873 71.6007 16.458V20H67.3107ZM71.6007 13.642H76.1547C76.6387 13.642 76.976 13.5467 77.1667 13.356C77.3574 13.1653 77.4527 12.8573 77.4527 12.432V11.31C77.4527 10.8847 77.3647 10.5767 77.1887 10.386C77.0127 10.1807 76.6754 10.078 76.1767 10.078H71.6007V13.642ZM82.7793 20L89.2253 7.064H94.9453L101.369 20H96.6393L95.5613 17.646H88.6093L87.3993 20H82.7793ZM89.8193 14.61H94.3293L92.1953 9.924H91.9753L89.8193 14.61ZM107.772 20C106.203 20 105.066 19.6553 104.362 18.966C103.658 18.2767 103.306 17.162 103.306 15.622V11.596C103.306 10.012 103.695 8.86067 104.472 8.142C105.25 7.40867 106.35 7.042 107.772 7.042H114.196C115.208 7.042 115.978 7.10067 116.506 7.218C117.049 7.32067 117.32 7.43067 117.32 7.548L116.638 10.298C116.272 10.254 115.553 10.21 114.482 10.166C113.426 10.1073 112.092 10.078 110.478 10.078H109.356C108.667 10.078 108.198 10.21 107.948 10.474C107.714 10.7233 107.596 11.112 107.596 11.64V15.402C107.596 15.9007 107.699 16.2893 107.904 16.568C108.124 16.832 108.608 16.964 109.356 16.964H110.258C112.356 16.964 113.954 16.942 115.054 16.898C116.154 16.8393 116.814 16.7807 117.034 16.722L118.376 19.098C118.376 19.1713 118.222 19.2813 117.914 19.428C117.621 19.5747 117.115 19.7067 116.396 19.824C115.692 19.9413 114.71 20 113.448 20H107.772ZM121.465 20V7.064H135.589V10.056H125.755V11.882H133.037V14.94H125.755V16.986H135.237L136.557 19.758C136.557 19.8167 136.359 19.8753 135.963 19.934C135.567 19.978 134.885 20 133.917 20H121.465Z" fill="white"/>
<path d="M4.89605 20.22C3.42939 20.22 2.31472 19.8753 1.55205 19.186C0.804054 18.4966 0.430054 17.382 0.430054 15.842V7.06396L6.5 7C6.28621 9.22278 6.29389 10.4948 5 12.5C4.18955 13.5404 3.57278 15.9597 5.22605 16.832C5.56339 17.0666 6.3595 16.5 6.85817 16.5V17.184H9.12388V16.5463C9.59321 16.5463 10.1981 17.0666 10.5501 16.832C11.639 16.0607 12 14.5 10.8581 12.5C9.61874 10.9174 9.42817 9.50026 9 7.06396H15.3021V15.842C15.3021 17.382 14.9281 18.4966 14.1801 19.186C13.4467 19.8753 12.3394 20.22 10.8581 20.22H4.89605Z" fill="white"/>
</svg>
